<mxfile modified="2021-01-04T04:34:50.307Z" host="app.diagrams.net" agent="5.0 (Windows NT 10.0; Win64; x64) AppleWebKit/537.36 (KHTML, like Gecko) Chrome/87.0.4280.88 Safari/537.36" etag="57B7wzFDgtIHK5wpyrTq" version="13.6.5" type="github">
  <diagram id="Ht1M8jgEwFfnCIfOTk4-" name="Page-1">
    <mxGraphModel dx="1564" dy="898" grid="1" gridSize="10" guides="1" tooltips="1" connect="1" arrows="1" fold="1" page="1" pageScale="1" pageWidth="1169" pageHeight="827" math="0" shadow="0">
      <root>
        <mxCell id="0" />
        <mxCell id="1" parent="0" />
        <mxCell id="UEzPUAAOIrF-is8g5C7q-74" value="AWS Cloud" style="points=[[0,0],[0.25,0],[0.5,0],[0.75,0],[1,0],[1,0.25],[1,0.5],[1,0.75],[1,1],[0.75,1],[0.5,1],[0.25,1],[0,1],[0,0.75],[0,0.5],[0,0.25]];outlineConnect=0;gradientColor=none;html=1;whiteSpace=wrap;fontSize=12;fontStyle=0;shape=mxgraph.aws4.group;grIcon=mxgraph.aws4.group_aws_cloud_alt;strokeColor=#232F3E;fillColor=none;verticalAlign=top;align=left;spacingLeft=30;fontColor=#232F3E;dashed=0;labelBackgroundColor=#ffffff;" parent="1" vertex="1">
          <mxGeometry y="70" width="780" height="650" as="geometry" />
        </mxCell>
        <mxCell id="X-pFl6C42FHxUA0N5_Hv-4" value="Marketing Admin 360 UI" style="rounded=1;whiteSpace=wrap;html=1;" vertex="1" parent="1">
          <mxGeometry x="82.5" y="110" width="150" height="60" as="geometry" />
        </mxCell>
        <mxCell id="X-pFl6C42FHxUA0N5_Hv-6" value="" style="edgeStyle=orthogonalEdgeStyle;html=1;endArrow=block;elbow=vertical;startArrow=none;endFill=1;strokeColor=#545B64;rounded=0;" edge="1" parent="1" source="X-pFl6C42FHxUA0N5_Hv-20" target="X-pFl6C42FHxUA0N5_Hv-22">
          <mxGeometry width="100" relative="1" as="geometry">
            <mxPoint x="624" y="440" as="sourcePoint" />
            <mxPoint x="724" y="440" as="targetPoint" />
          </mxGeometry>
        </mxCell>
        <mxCell id="X-pFl6C42FHxUA0N5_Hv-7" value="Marketing Admin 360 BFF" style="rounded=1;whiteSpace=wrap;html=1;" vertex="1" parent="1">
          <mxGeometry x="310" y="110" width="150" height="60" as="geometry" />
        </mxCell>
        <mxCell id="X-pFl6C42FHxUA0N5_Hv-9" value="" style="endArrow=classic;startArrow=classic;html=1;entryX=0;entryY=0.5;entryDx=0;entryDy=0;exitX=1;exitY=0.5;exitDx=0;exitDy=0;" edge="1" parent="1" source="X-pFl6C42FHxUA0N5_Hv-4" target="X-pFl6C42FHxUA0N5_Hv-7">
          <mxGeometry width="50" height="50" relative="1" as="geometry">
            <mxPoint x="240" y="180" as="sourcePoint" />
            <mxPoint x="290" y="130" as="targetPoint" />
          </mxGeometry>
        </mxCell>
        <mxCell id="X-pFl6C42FHxUA0N5_Hv-10" value="SQS&amp;nbsp;" style="outlineConnect=0;fontColor=#232F3E;gradientColor=#F34482;gradientDirection=north;fillColor=#BC1356;strokeColor=#ffffff;dashed=0;verticalLabelPosition=bottom;verticalAlign=top;align=center;html=1;fontSize=12;fontStyle=0;aspect=fixed;shape=mxgraph.aws4.resourceIcon;resIcon=mxgraph.aws4.sqs;labelBackgroundColor=#ffffff;" vertex="1" parent="1">
          <mxGeometry x="172" y="320" width="78" height="78" as="geometry" />
        </mxCell>
        <mxCell id="X-pFl6C42FHxUA0N5_Hv-11" value="Audience Transformer" style="outlineConnect=0;fontColor=#232F3E;gradientColor=#F78E04;gradientDirection=north;fillColor=#D05C17;strokeColor=#ffffff;dashed=0;verticalLabelPosition=bottom;verticalAlign=top;align=center;html=1;fontSize=12;fontStyle=0;aspect=fixed;shape=mxgraph.aws4.resourceIcon;resIcon=mxgraph.aws4.lambda;labelBackgroundColor=#ffffff;spacingTop=6;" vertex="1" parent="1">
          <mxGeometry x="172" y="480" width="78" height="78" as="geometry" />
        </mxCell>
        <mxCell id="X-pFl6C42FHxUA0N5_Hv-15" value="AudienceAPI" style="rounded=1;whiteSpace=wrap;html=1;" vertex="1" parent="1">
          <mxGeometry x="100" y="218" width="150" height="60" as="geometry" />
        </mxCell>
        <mxCell id="X-pFl6C42FHxUA0N5_Hv-16" value="CampaignAPI" style="rounded=1;whiteSpace=wrap;html=1;" vertex="1" parent="1">
          <mxGeometry x="310" y="218" width="150" height="60" as="geometry" />
        </mxCell>
        <mxCell id="X-pFl6C42FHxUA0N5_Hv-17" value="" style="outlineConnect=0;fontColor=#232F3E;gradientColor=none;fillColor=#3334B9;strokeColor=none;dashed=0;verticalLabelPosition=bottom;verticalAlign=top;align=center;html=1;fontSize=12;fontStyle=0;aspect=fixed;pointerEvents=1;shape=mxgraph.aws4.aurora_instance;" vertex="1" parent="1">
          <mxGeometry x="82.5" y="278" width="78" height="78" as="geometry" />
        </mxCell>
        <mxCell id="X-pFl6C42FHxUA0N5_Hv-19" value="" style="endArrow=classic;html=1;exitX=0.75;exitY=1;exitDx=0;exitDy=0;" edge="1" parent="1" source="X-pFl6C42FHxUA0N5_Hv-15" target="X-pFl6C42FHxUA0N5_Hv-10">
          <mxGeometry width="50" height="50" relative="1" as="geometry">
            <mxPoint x="590" y="400" as="sourcePoint" />
            <mxPoint x="640" y="350" as="targetPoint" />
          </mxGeometry>
        </mxCell>
        <mxCell id="X-pFl6C42FHxUA0N5_Hv-20" value="SQS&amp;nbsp;" style="outlineConnect=0;fontColor=#232F3E;gradientColor=#F34482;gradientDirection=north;fillColor=#BC1356;strokeColor=#ffffff;dashed=0;verticalLabelPosition=bottom;verticalAlign=top;align=center;html=1;fontSize=12;fontStyle=0;aspect=fixed;shape=mxgraph.aws4.resourceIcon;resIcon=mxgraph.aws4.sqs;labelBackgroundColor=#ffffff;" vertex="1" parent="1">
          <mxGeometry x="346" y="320" width="78" height="78" as="geometry" />
        </mxCell>
        <mxCell id="X-pFl6C42FHxUA0N5_Hv-21" value="" style="endArrow=classic;html=1;exitX=0.5;exitY=1;exitDx=0;exitDy=0;" edge="1" parent="1" source="X-pFl6C42FHxUA0N5_Hv-16" target="X-pFl6C42FHxUA0N5_Hv-20">
          <mxGeometry width="50" height="50" relative="1" as="geometry">
            <mxPoint x="590" y="400" as="sourcePoint" />
            <mxPoint x="640" y="350" as="targetPoint" />
          </mxGeometry>
        </mxCell>
        <mxCell id="X-pFl6C42FHxUA0N5_Hv-22" value="Campaign Transformer&lt;br&gt;" style="outlineConnect=0;fontColor=#232F3E;gradientColor=#F78E04;gradientDirection=north;fillColor=#D05C17;strokeColor=#ffffff;dashed=0;verticalLabelPosition=bottom;verticalAlign=top;align=center;html=1;fontSize=12;fontStyle=0;aspect=fixed;shape=mxgraph.aws4.resourceIcon;resIcon=mxgraph.aws4.lambda;labelBackgroundColor=#ffffff;spacingTop=6;" vertex="1" parent="1">
          <mxGeometry x="450" y="480" width="78" height="78" as="geometry" />
        </mxCell>
        <mxCell id="X-pFl6C42FHxUA0N5_Hv-24" value="" style="outlineConnect=0;fontColor=#232F3E;gradientColor=none;fillColor=#3334B9;strokeColor=none;dashed=0;verticalLabelPosition=bottom;verticalAlign=top;align=center;html=1;fontSize=12;fontStyle=0;aspect=fixed;pointerEvents=1;shape=mxgraph.aws4.aurora_instance;" vertex="1" parent="1">
          <mxGeometry x="430" y="278" width="78" height="78" as="geometry" />
        </mxCell>
        <mxCell id="X-pFl6C42FHxUA0N5_Hv-32" value="Promo Metadata DB" style="outlineConnect=0;fontColor=#232F3E;gradientColor=#4D72F3;gradientDirection=north;fillColor=#3334B9;strokeColor=#ffffff;dashed=0;verticalLabelPosition=bottom;verticalAlign=top;align=center;html=1;fontSize=12;fontStyle=0;aspect=fixed;shape=mxgraph.aws4.resourceIcon;resIcon=mxgraph.aws4.dynamodb;" vertex="1" parent="1">
          <mxGeometry x="450" y="610" width="78" height="78" as="geometry" />
        </mxCell>
        <mxCell id="X-pFl6C42FHxUA0N5_Hv-34" value="" style="edgeStyle=orthogonalEdgeStyle;rounded=0;orthogonalLoop=1;jettySize=auto;html=1;endArrow=open;endFill=0;strokeWidth=2;" edge="1" parent="1" source="X-pFl6C42FHxUA0N5_Hv-10" target="X-pFl6C42FHxUA0N5_Hv-11">
          <mxGeometry relative="1" as="geometry">
            <mxPoint x="688" y="359" as="sourcePoint" />
            <mxPoint x="1069" y="490" as="targetPoint" />
          </mxGeometry>
        </mxCell>
        <mxCell id="X-pFl6C42FHxUA0N5_Hv-35" value="" style="endArrow=classic;html=1;" edge="1" parent="1" source="X-pFl6C42FHxUA0N5_Hv-11" target="X-pFl6C42FHxUA0N5_Hv-32">
          <mxGeometry width="50" height="50" relative="1" as="geometry">
            <mxPoint x="590" y="400" as="sourcePoint" />
            <mxPoint x="640" y="350" as="targetPoint" />
          </mxGeometry>
        </mxCell>
        <mxCell id="X-pFl6C42FHxUA0N5_Hv-36" value="" style="endArrow=classic;html=1;" edge="1" parent="1" source="X-pFl6C42FHxUA0N5_Hv-22" target="X-pFl6C42FHxUA0N5_Hv-32">
          <mxGeometry width="50" height="50" relative="1" as="geometry">
            <mxPoint x="590" y="400" as="sourcePoint" />
            <mxPoint x="640" y="350" as="targetPoint" />
          </mxGeometry>
        </mxCell>
        <mxCell id="X-pFl6C42FHxUA0N5_Hv-37" value="" style="endArrow=classic;html=1;" edge="1" parent="1" source="X-pFl6C42FHxUA0N5_Hv-32">
          <mxGeometry width="50" height="50" relative="1" as="geometry">
            <mxPoint x="590" y="530" as="sourcePoint" />
            <mxPoint x="346" y="649" as="targetPoint" />
          </mxGeometry>
        </mxCell>
        <mxCell id="X-pFl6C42FHxUA0N5_Hv-38" value="Promo Metadata API" style="rounded=1;whiteSpace=wrap;html=1;" vertex="1" parent="1">
          <mxGeometry x="226" y="640" width="120" height="60" as="geometry" />
        </mxCell>
      </root>
    </mxGraphModel>
  </diagram>
</mxfile>
